<svg xmlns="http://www.w3.org/2000/svg" width="21" height="24" viewBox="0 0 21 24">
  <path id="bell" d="M20.6,16.982c-.91-.973-2.6-2.437-2.6-7.232a7.4,7.4,0,0,0-6-7.273V1.5a1.5,1.5,0,1,0-3,0v.977A7.4,7.4,0,0,0,3,9.75c0,4.8-1.7,6.259-2.6,7.232A1.465,1.465,0,0,0,0,18a1.5,1.5,0,0,0,1.5,1.5h18A1.5,1.5,0,0,0,21,18a1.464,1.464,0,0,0-.4-1.018ZM3.165,17.25c.995-1.311,2.082-3.484,2.087-7.473V9.75a5.25,5.25,0,1,1,10.5,0v.027c.005,3.989,1.093,6.162,2.087,7.473ZM10.5,24a3,3,0,0,0,3-3h-6A3,3,0,0,0,10.5,24Z" transform="translate(0)" fill="#38658e"/>
</svg>
