<svg id="calendar" xmlns="http://www.w3.org/2000/svg" width="24" height="24" viewBox="0 0 24 24">
  <g id="Grupo_16" data-name="Grupo 16">
    <rect id="Rectángulo_24" data-name="Rectángulo 24" width="24" height="24" fill="none"/>
  </g>
  <g id="Grupo_17" data-name="Grupo 17">
    <path id="Trazado_16" data-name="Trazado 16" d="M19,4H18V2H16V4H8V2H6V4H5A1.991,1.991,0,0,0,3.01,6L3,20a2,2,0,0,0,2,2H19a2.006,2.006,0,0,0,2-2V6a2.006,2.006,0,0,0-2-2Zm0,16H5V10H19ZM19,8H5V6H19ZM9,14H7V12H9Zm4,0H11V12h2Zm4,0H15V12h2ZM9,18H7V16H9Zm4,0H11V16h2Zm4,0H15V16h2Z" fill="#38658e"/>
  </g>
</svg>
