<svg xmlns="http://www.w3.org/2000/svg" width="19.902" height="14.927" viewBox="0 0 19.902 14.927">
  <path id="envelope-solid" d="M19.526,68.929a.234.234,0,0,1,.377.183v7.949a1.866,1.866,0,0,1-1.866,1.866H1.866A1.866,1.866,0,0,1,0,77.061V69.116a.232.232,0,0,1,.377-.183c.871.676,2.025,1.535,5.99,4.416.82.6,2.2,1.858,3.584,1.85,1.388.012,2.8-1.275,3.588-1.85C17.5,70.468,18.655,69.605,19.526,68.929ZM9.951,73.951c.9.016,2.2-1.135,2.853-1.609,5.158-3.743,5.551-4.07,6.741-5A.93.93,0,0,0,19.9,66.6v-.739A1.866,1.866,0,0,0,18.037,64H1.866A1.866,1.866,0,0,0,0,65.866V66.6a.936.936,0,0,0,.358.735c1.19.929,1.582,1.259,6.741,5,.653.474,1.951,1.625,2.853,1.609Z" transform="translate(0 -64)" fill="rgba(122,122,122,0.43)"/>
</svg>
